<svg id="Capa_1" enable-background="new 0 0 512 512" height="512" viewBox="0 0 512 512" width="512" xmlns="http://www.w3.org/2000/svg"><g><path d="m164.656 184.26h-35.696v-21.225c0-4.545 3.685-8.23 8.23-8.23h19.236c4.545 0 8.23 3.685 8.23 8.23z" fill="#685e68"/><path d="m164.655 163.031v14.347h-17.842v-14.347c0-4.543-3.69-8.222-8.232-8.222h17.841c4.553 0 8.233 3.679 8.233 8.222z" fill="#554e56"/><path d="m256 0c-141.386 0-256 114.614-256 256s114.614 256 256 256 256-114.613 256-256-114.614-256-256-256zm-212.845 256.002c-.001-117.45 95.397-212.848 212.846-212.847 47.661 0 91.661 15.669 127.134 42.138 4.622 3.449 5.07 10.219.993 14.296l-284.539 284.539c-4.078 4.078-10.848 3.629-14.296-.993-26.47-35.473-42.138-79.473-42.138-127.133zm212.844 212.843c-47.661 0-91.661-15.669-127.134-42.138-4.622-3.449-5.07-10.219-.993-14.296l284.539-284.539c4.078-4.078 10.848-3.629 14.296.993 26.469 35.473 42.137 79.473 42.138 127.133.001 117.45-95.397 212.848-212.846 212.847z" fill="#f47c7c"/><path d="m303.533 4.409c107.995 30.031 187.244 129.084 187.244 246.658 0 141.386-114.614 256-256 256-16.238 0-32.117-1.511-47.512-4.409 21.87 6.094 44.922 9.342 68.735 9.342 141.386 0 256-114.613 256-256 0-125.138-89.794-229.309-208.467-251.591z" fill="#ee6161"/><path d="m323.596 175.291-17.209-40.854c-.601-1.426-1.998-2.354-3.546-2.354h-46.841-46.841c-1.548 0-2.945.927-3.546 2.354l-17.209 40.854c-.601 1.426-1.998 2.354-3.546 2.354h-68.105c-5.484 0-9.93 4.446-9.93 9.93v158.996c0 5.484 4.446 9.93 9.93 9.93h278.494c5.484 0 9.93-4.446 9.93-9.93v-158.996c0-5.484-4.446-9.93-9.93-9.93h-68.105c-1.548 0-2.945-.928-3.546-2.354z" fill="#918291"/><path d="m327.14 177.645h-20.555c-1.542 0-2.939-.925-3.546-2.354l-17.204-40.853c-.606-1.429-2.004-2.354-3.546-2.354h20.555c1.542 0 2.939.925 3.546 2.354l17.204 40.853c.607 1.429 2.005 2.354 3.546 2.354z" fill="#7a6d79"/><path d="m405.176 187.572v158.995c0 5.465-4.471 9.937-9.937 9.937h-14.462c2.117 0 3.844-1.727 3.844-3.854v-171.16c0-2.117-1.727-3.844-3.844-3.844h14.472c5.461-.001 9.927 4.466 9.927 9.926z" fill="#7a6d79"/><circle cx="256" cy="261.965" fill="#dcf5f8" r="63.49"/><path d="m319.494 261.961c0 35.066-28.427 63.494-63.494 63.494-14.943 0-28.684-5.17-39.527-13.813 6.876 2.549 14.306 3.946 22.066 3.946 35.066 0 63.494-28.427 63.494-63.494 0-20.102-9.342-38.016-23.926-49.661 24.172 8.973 41.387 32.241 41.387 59.528z" fill="#a6e7f0"/><path d="m368.722 226.921h-21.627c-5.229 0-9.468-4.239-9.468-9.468v-6.013c0-5.229 4.239-9.468 9.468-9.468h21.627c5.229 0 9.468 4.239 9.468 9.468v6.013c0 5.229-4.239 9.468-9.468 9.468z" fill="#fdf6ec"/><path d="m378.188 211.437v6.012c0 5.231-4.234 9.476-9.466 9.476h-14.738c5.231 0 9.476-4.244 9.476-9.476v-6.012c0-5.231-4.245-9.466-9.476-9.466h14.738c5.232.001 9.466 4.235 9.466 9.466z" fill="#fcead0"/></g></svg>